<svg width="16" height="16" viewBox="0 0 16 16" xmlns="http://www.w3.org/2000/svg">
  <!-- Background circle -->
  <circle cx="8" cy="8" r="8" fill="#74C69D"/>
  
  <!-- TreePine simplified for 16x16 using Lucide paths -->
  <g transform="translate(2.5, 1) scale(0.45)">
    <path d="m17 14 3 3.3a1 1 0 0 1-.7 1.7H4.4a1 1 0 0 1-.7-1.7L7 14h-.3a1 1 0 0 1-.7-1.7L9 9h-.2A1 1 0 0 1 8 7.3L12 2l4 5.3a1 1 0 0 1-.8 1.7H15l3 3.3a1 1 0 0 1-.7 1.7H17Z" 
          fill="#ffffff"/>
    <path d="M12 22v-3" 
          fill="none" 
          stroke="#ffffff" 
          stroke-width="2"/>
  </g>
  
  <!-- Shield simplified for 16x16 using Lucide paths -->
  <g transform="translate(11, 3) scale(0.25)">
    <path d="M20 13c0 5-3.5 7.5-7.66 8.95a1 1 0 0 1-.67-.01C7.5 20.5 4 18 4 13V6a1 1 0 0 1 1-1c2 0 4.5-1.2 6.24-2.72a1.17 1.17 0 0 1 1.52 0C14.51 3.81 17 5 19 5a1 1 0 0 1 1 1z" 
          fill="#E96E8C"/>
  </g>
</svg>